<svg width="22" height="17" viewBox="0 0 22 17" fill="none" xmlns="http://www.w3.org/2000/svg">
<path d="M18.5094 8.99998H21.5101C22.1652 8.99498 22.1652 8.00476 21.5101 7.99976H18.5094C17.8543 8.00476 17.8543 8.99498 18.5094 8.99998Z" fill="white"/>
<path d="M18.0072 4.99924C18.1372 4.99924 18.2622 4.94923 18.3622 4.85421L19.8626 3.35388C20.0576 3.15884 20.0576 2.84377 19.8626 2.64872C19.6675 2.45368 19.3525 2.45368 19.1574 2.64872L17.6571 4.14906C17.337 4.44412 17.5771 5.01425 18.0072 4.99924Z" fill="white"/>
<path d="M19.153 14.3562C19.6181 14.8163 20.3232 14.1111 19.8581 13.651L18.3578 12.1507C18.1627 11.9556 17.8477 11.9556 17.6526 12.1507C17.4576 12.3457 17.4576 12.6608 17.6526 12.8558L19.153 14.3562Z" fill="white"/>
<path d="M11.6473 15.1814C11.8224 15.3464 12.9026 16.6467 13.1177 16.7368C14.0879 17.4319 15.5432 16.6617 15.5082 15.4615V1.53839C15.5432 0.328117 14.0629 -0.442053 13.0927 0.278106C12.3175 0.953256 11.4623 2.17853 10.6271 2.77866C9.06176 4.10395 7.04631 4.85412 5.00586 4.98415V12.0157C5.74102 12.0757 6.47619 12.1757 7.18134 12.3908C8.89172 12.8809 10.4521 13.8661 11.6473 15.1814Z" fill="white"/>
<path d="M0.0488864 9.95024C0.253932 11.1105 1.31917 12.0107 2.50443 12.0007H4.00476V4.99915H2.50443C1.12412 4.99915 0.00387652 6.11939 0.00387652 7.4997C0.0188798 7.84978 -0.0361324 9.64517 0.0488864 9.95024Z" fill="white"/>
<path d="M2.50413 13.0007C2.15405 13.0007 1.81898 12.9457 1.50391 12.8557V15.5013C1.55392 17.4767 4.45456 17.4817 4.50457 15.5013V13.0007C4.1745 13.0007 2.85921 13.0007 2.50413 13.0007Z" fill="white"/>
</svg>
