<svg width="20" height="22" viewBox="0 0 20 22" fill="none" xmlns="http://www.w3.org/2000/svg">
<path d="M18.7344 6.875C19.018 6.875 19.25 6.64297 19.25 6.35938V4.64062C19.25 4.35703 19.018 4.125 18.7344 4.125H17.875V2.0625C17.875 0.923828 16.9512 0 15.8125 0H2.0625C0.923828 0 0 0.923828 0 2.0625V19.9375C0 21.0762 0.923828 22 2.0625 22H15.8125C16.9512 22 17.875 21.0762 17.875 19.9375V17.875H18.7344C19.018 17.875 19.25 17.643 19.25 17.3594V15.6406C19.25 15.357 19.018 15.125 18.7344 15.125H17.875V12.375H18.7344C19.018 12.375 19.25 12.143 19.25 11.8594V10.1406C19.25 9.85703 19.018 9.625 18.7344 9.625H17.875V6.875H18.7344ZM8.9375 5.5C10.4543 5.5 11.6875 6.7332 11.6875 8.25C11.6875 9.7668 10.4543 11 8.9375 11C7.4207 11 6.1875 9.7668 6.1875 8.25C6.1875 6.7332 7.4207 5.5 8.9375 5.5ZM13.75 15.675C13.75 16.1305 13.3203 16.5 12.7875 16.5H5.0875C4.55469 16.5 4.125 16.1305 4.125 15.675V14.85C4.125 13.4836 5.41836 12.375 7.0125 12.375H7.22734C7.75586 12.5941 8.33164 12.7188 8.9375 12.7188C9.54336 12.7188 10.1234 12.5941 10.6477 12.375H10.8625C12.4566 12.375 13.75 13.4836 13.75 14.85V15.675Z" fill="white"/>
</svg>
