<svg width="22" height="22" viewBox="0 0 22 22" fill="none" xmlns="http://www.w3.org/2000/svg">
<mask id="mask0_5221_92164" style="mask-type:luminance" maskUnits="userSpaceOnUse" x="2" y="2" width="18" height="18">
<path d="M3 2.5H19C19.2761 2.5 19.5 2.72386 19.5 3V19C19.5 19.2761 19.2761 19.5 19 19.5H3C2.72386 19.5 2.5 19.2761 2.5 19V3C2.5 2.72386 2.72386 2.5 3 2.5Z" fill="white" stroke="white"/>
</mask>
<g mask="url(#mask0_5221_92164)">
<path d="M19 2H3C2.44772 2 2 2.44772 2 3V19C2 19.5523 2.44772 20 3 20H19C19.5523 20 20 19.5523 20 19V3C20 2.44772 19.5523 2 19 2Z" stroke="white" stroke-width="4"/>
</g>
<path d="M16.5 8.5H21.5V13.5H16.5V8.5Z" fill="white" stroke="white"/>
<path d="M0.5 8.5H5.5V13.5H0.5V8.5Z" fill="white" stroke="white"/>
<path d="M11 0.5C12.3807 0.5 13.5 1.61929 13.5 3C13.5 4.38071 12.3807 5.5 11 5.5C9.61929 5.5 8.5 4.38071 8.5 3C8.5 1.61929 9.61929 0.5 11 0.5Z" fill="white" stroke="white"/>
<path d="M11 16.5C12.3807 16.5 13.5 17.6193 13.5 19C13.5 20.3807 12.3807 21.5 11 21.5C9.61929 21.5 8.5 20.3807 8.5 19C8.5 17.6193 9.61929 16.5 11 16.5Z" fill="white" stroke="white"/>
</svg>
