<svg width="22" height="21" viewBox="0 0 22 21" fill="none" xmlns="http://www.w3.org/2000/svg">
<path d="M3.29053 4.25869C4.07529 4.19048 5.06781 4.19048 6.40128 4.19048H8.26371C10.8714 4.19048 12.1752 4.19048 13.1712 4.70059C14.0473 5.1493 14.7596 5.86528 15.206 6.74592C15.7134 7.74708 15.7134 9.05767 15.7134 11.6789V14.2051C15.7134 14.4669 15.7134 14.5977 15.7082 14.7084C15.6268 16.437 14.6172 17.9178 13.1682 18.6595L14.6045 19.684C15.5422 20.3528 16.7743 19.387 16.3463 18.3187C16.0431 17.5619 16.6013 16.7388 17.4175 16.7388H18.0479C20.2302 16.7388 21.9992 14.9722 21.9992 12.7929V8.36936C21.9992 5.4398 21.9992 3.97503 21.4282 2.85609C20.9261 1.87184 20.1248 1.07163 19.1392 0.570128C18.0186 0 16.5519 0 13.6182 0H11.523C8.58936 0 7.12255 0 6.00207 0.570128C5.01646 1.07163 4.21512 1.87184 3.71294 2.85609C3.50646 3.26076 3.37466 3.71065 3.29053 4.25869Z" fill="white"/>
<path fill-rule="evenodd" clip-rule="evenodd" d="M14.2226 7.49297C14.6667 8.37634 14.6667 9.53275 14.6667 11.8456V14.0746C14.6667 14.3055 14.6667 14.4211 14.6621 14.5186C14.5627 16.6458 12.8838 18.3476 10.7852 18.4483C10.689 18.4529 10.5619 18.4529 10.3077 18.4529L10.2425 18.453C9.41117 18.4584 8.60138 18.7214 7.92183 19.2068L7.87862 19.238L5.75136 20.7782C5.02211 21.3062 4.06383 20.5437 4.39666 19.7003C4.63242 19.1029 4.19834 18.4529 3.56352 18.4529H3.0732C1.37592 18.4529 0 17.0582 0 15.3378V11.8456C0 9.53275 0 8.37634 0.444048 7.49297C0.834642 6.71593 1.4579 6.08418 2.22448 5.68826C3.09598 5.23816 4.23682 5.23816 6.51852 5.23816H8.14815C10.4298 5.23816 11.5707 5.23816 12.4422 5.68826C13.2088 6.08418 13.832 6.71593 14.2226 7.49297ZM4.19048 13.6191C4.76906 13.6191 5.2381 13.1501 5.2381 12.5715C5.2381 11.9929 4.76906 11.5239 4.19048 11.5239C3.6119 11.5239 3.14286 11.9929 3.14286 12.5715C3.14286 13.1501 3.6119 13.6191 4.19048 13.6191ZM8.38095 12.5715C8.38095 13.1501 7.91191 13.6191 7.33333 13.6191C6.75475 13.6191 6.28571 13.1501 6.28571 12.5715C6.28571 11.9929 6.75475 11.5239 7.33333 11.5239C7.91191 11.5239 8.38095 11.9929 8.38095 12.5715ZM10.4762 13.6191C11.0548 13.6191 11.5238 13.1501 11.5238 12.5715C11.5238 11.9929 11.0548 11.5239 10.4762 11.5239C9.8976 11.5239 9.42857 11.9929 9.42857 12.5715C9.42857 13.1501 9.8976 13.6191 10.4762 13.6191Z" fill="white"/>
</svg>
