<svg width="22" height="22" viewBox="0 0 22 22" fill="none" xmlns="http://www.w3.org/2000/svg">
<path d="M10.7023 14.85C9.68118 14.85 8.70192 14.4444 7.9799 13.7224C7.25789 13.0003 6.85226 12.0211 6.85226 11C6.85226 9.97892 7.25789 8.99966 7.9799 8.27764C8.70192 7.55563 9.68118 7.15 10.7023 7.15C11.7233 7.15 12.7026 7.55563 13.4246 8.27764C14.1466 8.99966 14.5523 9.97892 14.5523 11C14.5523 12.0211 14.1466 13.0003 13.4246 13.7224C12.7026 14.4444 11.7233 14.85 10.7023 14.85ZM18.8753 12.067C18.9193 11.715 18.9523 11.363 18.9523 11C18.9523 10.637 18.9193 10.274 18.8753 9.9L21.1963 8.107C21.4053 7.942 21.4603 7.645 21.3283 7.403L19.1283 3.597C18.9963 3.355 18.6993 3.256 18.4573 3.355L15.7183 4.455C15.1463 4.026 14.5523 3.652 13.8593 3.377L13.4523 0.462002C13.4299 0.332441 13.3624 0.214972 13.2618 0.130409C13.1611 0.0458456 13.0337 -0.000351752 12.9023 2.01682e-06H8.50226C8.22726 2.01682e-06 7.99626 0.198002 7.95226 0.462002L7.54526 3.377C6.85226 3.652 6.25826 4.026 5.68626 4.455L2.94726 3.355C2.70526 3.256 2.40826 3.355 2.27626 3.597L0.0762647 7.403C-0.0667353 7.645 -0.000735132 7.942 0.208265 8.107L2.52926 9.9C2.48526 10.274 2.45226 10.637 2.45226 11C2.45226 11.363 2.48526 11.715 2.52926 12.067L0.208265 13.893C-0.000735132 14.058 -0.0667353 14.355 0.0762647 14.597L2.27626 18.403C2.40826 18.645 2.70526 18.733 2.94726 18.645L5.68626 17.534C6.25826 17.974 6.85226 18.348 7.54526 18.623L7.95226 21.538C7.99626 21.802 8.22726 22 8.50226 22H12.9023C13.1773 22 13.4083 21.802 13.4523 21.538L13.8593 18.623C14.5523 18.337 15.1463 17.974 15.7183 17.534L18.4573 18.645C18.6993 18.733 18.9963 18.645 19.1283 18.403L21.3283 14.597C21.4603 14.355 21.4053 14.058 21.1963 13.893L18.8753 12.067Z" fill="white"/>
</svg>
