<svg width="22" height="22" viewBox="0 0 22 22" fill="none" xmlns="http://www.w3.org/2000/svg">
<path d="M19.6114 0H1.50857C0.67541 0 0 0.703552 0 1.57143V7.07143C0 7.9393 0.67541 8.64286 1.50857 8.64286H19.6114C20.4446 8.64286 21.12 7.9393 21.12 7.07143V1.57143C21.12 0.703552 20.4446 0 19.6114 0Z" fill="white"/>
<path d="M9.05143 11.0001H1.50857C0.67541 11.0001 0 11.7037 0 12.5716V20.4287C0 21.2966 0.67541 22.0001 1.50857 22.0001H9.05143C9.88459 22.0001 10.56 21.2966 10.56 20.4287V12.5716C10.56 11.7037 9.88459 11.0001 9.05143 11.0001Z" fill="white"/>
<path d="M20.3656 11.7858H13.577C13.377 11.7858 13.1851 11.8685 13.0437 12.0159C12.9022 12.1632 12.8228 12.3631 12.8228 12.5715C12.8228 12.7799 12.9022 12.9797 13.0437 13.1271C13.1851 13.2744 13.377 13.3572 13.577 13.3572H20.3656C20.5657 13.3572 20.7575 13.2744 20.899 13.1271C21.0404 12.9797 21.1199 12.7799 21.1199 12.5715C21.1199 12.3631 21.0404 12.1632 20.899 12.0159C20.7575 11.8685 20.5657 11.7858 20.3656 11.7858Z" fill="white"/>
<path d="M20.3656 15.7139H13.577C13.377 15.7139 13.1851 15.7966 13.0437 15.944C12.9022 16.0913 12.8228 16.2912 12.8228 16.4996C12.8228 16.708 12.9022 16.9078 13.0437 17.0552C13.1851 17.2025 13.377 17.2853 13.577 17.2853H20.3656C20.5657 17.2853 20.7575 17.2025 20.899 17.0552C21.0404 16.9078 21.1199 16.708 21.1199 16.4996C21.1199 16.2912 21.0404 16.0913 20.899 15.944C20.7575 15.7966 20.5657 15.7139 20.3656 15.7139Z" fill="white"/>
<path d="M20.3656 19.6425H13.577C13.377 19.6425 13.1851 19.7252 13.0437 19.8726C12.9022 20.0199 12.8228 20.2198 12.8228 20.4282C12.8228 20.6366 12.9022 20.8364 13.0437 20.9838C13.1851 21.1311 13.377 21.2139 13.577 21.2139H20.3656C20.5657 21.2139 20.7575 21.1311 20.899 20.9838C21.0404 20.8364 21.1199 20.6366 21.1199 20.4282C21.1199 20.2198 21.0404 20.0199 20.899 19.8726C20.7575 19.7252 20.5657 19.6425 20.3656 19.6425Z" fill="white"/>
</svg>
