<svg width="32" height="32" viewBox="0 0 32 32" fill="none" xmlns="http://www.w3.org/2000/svg">
<path d="M28.799 16.2187H15.7813V3.20099C15.7813 3.041 15.6504 2.91009 15.4904 2.91009H14.545C12.6349 2.90696 10.743 3.28156 8.97817 4.01232C7.21336 4.74308 5.61046 5.81558 4.26169 7.16812C2.93342 8.49231 1.87506 10.0619 1.14544 11.7898C0.3862 13.5819 -0.00338875 15.5088 2.22054e-05 17.455C-0.00310563 19.3651 0.371486 21.257 1.10225 23.0218C1.83301 24.7866 2.90551 26.3895 4.25806 27.7383C5.59256 29.0728 7.14887 30.1237 8.87972 30.8546C10.6718 31.6138 12.5987 32.0034 14.545 32C16.4551 32.0031 18.347 31.6285 20.1118 30.8978C21.8766 30.167 23.4795 29.0945 24.8283 27.7419C26.1628 26.4074 27.2136 24.8511 27.9445 23.1203C28.7038 21.3282 29.0933 19.4013 29.0899 17.455V16.5096C29.0899 16.3496 28.959 16.2187 28.799 16.2187ZM23.0429 26.0293C21.9169 27.1465 20.5815 28.0305 19.1133 28.6307C17.6451 29.231 16.0729 29.5357 14.4868 29.5273C11.2833 29.5128 8.27247 28.2583 6.00709 25.9929C3.72717 23.713 2.47266 20.6804 2.47266 17.455C2.47266 14.2297 3.72717 11.1971 6.00709 8.91715C7.99247 6.93177 10.5488 5.7209 13.3087 5.44455V18.6914H26.5555C26.2755 21.4658 25.0537 24.0366 23.0429 26.0293ZM31.9989 14.197L31.9044 13.1715C31.5953 9.82258 30.1081 6.66269 27.7154 4.27732C25.3211 1.88757 22.1677 0.408601 18.7994 0.0956465L17.7703 0.00110442C17.5994 -0.0134405 17.454 0.117464 17.454 0.288367V14.2551C17.454 14.4151 17.5849 14.546 17.7449 14.546L31.708 14.5097C31.8789 14.5097 32.0135 14.3642 31.9989 14.197ZM19.9193 12.0807V2.7501C22.2099 3.22953 24.312 4.36392 25.97 6.01544C27.6318 7.67356 28.7699 9.78258 29.2427 12.0552L19.9193 12.0807Z" fill="#10CBF3"/>
</svg>
