<svg width="33" height="33" viewBox="0 0 33 33" fill="none" xmlns="http://www.w3.org/2000/svg">
<path d="M32 16C32 12.7003 30.9798 9.48127 29.0791 6.78393C27.1785 4.08658 24.4904 2.04285 21.383 0.932706C18.2756 -0.177442 14.901 -0.299706 11.7215 0.582664C8.54193 1.46503 5.71295 3.30888 3.62208 5.8616C1.53122 8.41433 0.280737 11.5511 0.0419498 14.8421C-0.196838 18.1332 0.587745 21.4176 2.28822 24.2454C3.98869 27.0732 6.52188 29.3061 9.54076 30.6382C12.5596 31.9703 15.9165 32.3365 19.1516 31.6865L18.288 27.388C15.9394 27.8599 13.5024 27.5941 11.3107 26.627C9.11911 25.6599 7.28008 24.0389 6.04558 21.986C4.81108 19.9331 4.24149 17.5487 4.41485 15.1594C4.5882 12.7702 5.49602 10.493 7.01393 8.63977C8.53185 6.78655 10.5856 5.44797 12.8939 4.80739C15.2022 4.16681 17.6521 4.25557 19.9079 5.06151C22.1638 5.86745 24.1153 7.35115 25.4951 9.30935C26.875 11.2676 27.6156 13.6045 27.6156 16H32Z" fill="#1D88FA"/>
<mask id="path-2-inside-1_199_806" fill="white">
<path d="M20.9907 31.5667C23.9307 30.6603 26.547 28.9255 28.5262 26.5702C30.5055 24.2149 31.7637 21.3388 32.1502 18.2867L27.8005 17.7359C27.5199 19.9517 26.6065 22.0396 25.1696 23.7495C23.7327 25.4595 21.8334 26.7189 19.699 27.3769L20.9907 31.5667Z"/>
</mask>
<path d="M20.9907 31.5667C23.9307 30.6603 26.547 28.9255 28.5262 26.5702C30.5055 24.2149 31.7637 21.3388 32.1502 18.2867L27.8005 17.7359C27.5199 19.9517 26.6065 22.0396 25.1696 23.7495C23.7327 25.4595 21.8334 26.7189 19.699 27.3769L20.9907 31.5667Z" stroke="#1D88FA" stroke-width="2" mask="url(#path-2-inside-1_199_806)"/>
</svg>
