<svg width="32" height="32" viewBox="0 0 32 32" fill="none" xmlns="http://www.w3.org/2000/svg">
<path d="M27.3792 4.70668C24.6939 2.01599 21.1277 0.365876 17.3239 0.0539835C13.5202 -0.257909 9.72935 0.78895 6.63512 3.00573C3.54089 5.22252 1.347 8.46329 0.449169 12.1435C-0.44866 15.8237 0.00867873 19.7011 1.73869 23.0762L0.0404678 31.2556C0.0228469 31.337 0.0223478 31.4212 0.0390021 31.5028C0.0556564 31.5844 0.0891052 31.6617 0.137257 31.7299C0.207797 31.8334 0.308487 31.9131 0.425882 31.9583C0.543277 32.0036 0.67179 32.0122 0.794256 31.9831L8.87475 30.083C12.2673 31.7558 16.148 32.1804 19.8264 31.2811C23.5049 30.3817 26.7424 28.2169 28.9629 25.1717C31.1835 22.1266 32.243 18.3986 31.953 14.6512C31.663 10.9037 30.0423 7.37989 27.3792 4.70668ZM24.8598 24.6562C23.0018 26.4943 20.6092 27.7077 18.0192 28.1253C15.4293 28.5429 12.7725 28.1438 10.4234 26.984L9.29711 26.4312L4.34322 27.5951L4.35789 27.534L5.38445 22.5874L4.83304 21.5078C3.63272 19.1691 3.2093 16.5136 3.62342 13.9215C4.03753 11.3295 5.26795 8.93398 7.1384 7.07816C9.48865 4.74725 12.6758 3.43782 15.9991 3.43782C19.3223 3.43782 22.5095 4.74725 24.8598 7.07816C24.8798 7.10093 24.9013 7.12232 24.9243 7.14217C27.2454 9.47909 28.5412 12.6316 28.5291 15.9124C28.517 19.1932 27.198 22.3362 24.8598 24.6562Z" fill="#28A645"/>
<path d="M23.9197 21.0279C23.3126 21.9765 22.3535 23.1375 21.148 23.4256C19.0362 23.9319 15.7952 23.443 11.7623 19.7127L11.7124 19.669C8.1664 16.4071 7.24543 13.6923 7.46834 11.5391C7.59152 10.3169 8.61808 9.21122 9.48333 8.48959C9.62012 8.37377 9.78234 8.29131 9.957 8.2488C10.1317 8.20629 10.3139 8.20491 10.4892 8.24479C10.6645 8.28466 10.828 8.36467 10.9665 8.47842C11.1051 8.59216 11.2149 8.7365 11.2871 8.89987L12.5923 11.8097C12.6772 11.9983 12.7086 12.2064 12.6833 12.4114C12.6579 12.6165 12.5768 12.8108 12.4486 12.9736L11.7887 13.8232C11.6471 13.9987 11.5616 14.2121 11.5433 14.4362C11.5251 14.6602 11.5747 14.8845 11.686 15.0803C12.0556 15.7233 12.9414 16.669 13.9239 17.5449C15.0268 18.5342 16.2498 19.4391 17.0241 19.7476C17.2313 19.8316 17.4591 19.852 17.6782 19.8064C17.8972 19.7608 18.0975 19.6511 18.2531 19.4915L19.0186 18.7262C19.1663 18.5817 19.35 18.4787 19.551 18.4276C19.7519 18.3765 19.9629 18.3791 20.1625 18.4353L23.2627 19.3082C23.4337 19.3602 23.5905 19.4504 23.721 19.5718C23.8515 19.6931 23.9523 19.8425 24.0157 20.0084C24.0791 20.1744 24.1034 20.3525 24.0868 20.5292C24.0701 20.7059 24.013 20.8765 23.9197 21.0279Z" fill="#28A645"/>
</svg>
